<svg width="64" height="64" viewBox="0 0 64 64" fill="none" xmlns="http://www.w3.org/2000/svg">
  <!-- Gradient background -->
  <defs>
    <linearGradient id="bg" x1="0%" y1="0%" x2="100%" y2="100%">
      <stop offset="0%" style="stop-color:#6366f1;stop-opacity:1" />
      <stop offset="100%" style="stop-color:#8b5cf6;stop-opacity:1" />
    </linearGradient>
  </defs>

  <!-- Background -->
  <rect width="64" height="64" rx="12" fill="url(#bg)"/>

  <!-- Building/Apartment icon -->
  <!-- Main building structure -->
  <rect x="16" y="20" width="32" height="36" rx="2" fill="white" opacity="0.95"/>

  <!-- Windows - 3x3 grid -->
  <rect x="20" y="24" width="6" height="6" rx="1" fill="#6366f1"/>
  <rect x="29" y="24" width="6" height="6" rx="1" fill="#6366f1"/>
  <rect x="38" y="24" width="6" height="6" rx="1" fill="#6366f1"/>

  <rect x="20" y="33" width="6" height="6" rx="1" fill="#6366f1"/>
  <rect x="29" y="33" width="6" height="6" rx="1" fill="#6366f1"/>
  <rect x="38" y="33" width="6" height="6" rx="1" fill="#6366f1"/>

  <rect x="20" y="42" width="6" height="6" rx="1" fill="#6366f1"/>
  <rect x="29" y="42" width="6" height="6" rx="1" fill="#6366f1"/>
  <rect x="38" y="42" width="6" height="6" rx="1" fill="#6366f1"/>

  <!-- Door -->
  <rect x="27" y="50" width="10" height="6" rx="1" fill="#8b5cf6"/>

  <!-- Roof accent -->
  <path d="M 14 20 L 32 12 L 50 20 L 48 18 L 32 10 L 16 18 Z" fill="white" opacity="0.9"/>
</svg>
